# Rhino

g object_1
v 0.5 0.5 -0.375
v 0.5 0.5 0.375
v 19.5 0.5 -0.375
v 19.5 0.5 0.375
v 19.5 19.5 -0.375
v 19.5 19.5 0.375
v 0.5 19.5 -0.375
v 0.5 19.5 0.375
v 0.5 19.5 -0.375
v 0.5 19.5 0.375
v 0.5 0.5 -0.375
v 0.5 0.5 0.375
v 0.5 0.5 -0.375
v 0.5 19.5 -0.375
v 19.5 0.5 -0.375
v 19.5 19.5 -0.375
v 19.5 2.497858762741089 -0.375
v 10.86603260040283 2.497858762741089 -0.375
v 10.86603260040283 5.421756267547607 -0.375
v 19.5 5.421756267547607 -0.375
v 0.5 0.5 0.375
v 0.5 19.5 0.375
v 19.5 0.5 0.375
v 19.5 19.5 0.375
v 19.5 2.497858762741089 0.375
v 10.86603260040283 2.497858762741089 0.375
v 10.86603260040283 5.421756267547607 0.375
v 19.5 5.421756267547607 0.375
v 10.86603260040283 2.497858762741089 0.375
v 10.86603260040283 2.497858762741089 0
v 10.86603260040283 5.421756267547607 0.375
v 10.86603260040283 5.421756267547607 0
v 10.86603260040283 5.421756267547607 0.375
v 10.86603260040283 5.421756267547607 0
v 19.5 5.421756267547607 0.375
v 19.5 5.421756267547607 0
v 19.5 2.497858762741089 0.375
v 19.5 2.497858762741089 0
v 10.86603260040283 2.497858762741089 0.375
v 10.86603260040283 2.497858762741089 0
v 19.5 5.421756267547607 -0.375
v 19.5 5.421756267547607 0.375
v 19.5 19.5 -0.375
v 19.5 19.5 0.375
v 19.5 5.421756267547607 0
v 19.5 0.5 -0.375
v 19.5 0.5 0.375
v 19.5 2.497858762741089 -0.375
v 19.5 2.497858762741089 0.375
v 19.5 2.497858762741089 0
v 10.86603260040283 2.497858762741089 0
v 10.86603260040283 2.497858762741089 -0.375
v 10.86603260040283 5.421756267547607 0
v 10.86603260040283 5.421756267547607 -0.375
v 10.86603260040283 5.421756267547607 0
v 10.86603260040283 5.421756267547607 -0.375
v 19.5 5.421756267547607 0
v 19.5 5.421756267547607 -0.375
v 19.5 2.497858762741089 0
v 19.5 2.497858762741089 -0.375
v 10.86603260040283 2.497858762741089 0
v 10.86603260040283 2.497858762741089 -0.375
vt 0.1070877909660339 0
vt 0.08881578594446182 0
vt 0.1070877909660339 0.5
vt 0.08881578594446182 0.5
vt 0.08735094219446182 0
vt 0.06907894462347031 0
vt 0.08735094219446182 0.5
vt 0.06907894462347031 0.5
vt 0.1564298868179321 0
vt 0.1381578892469406 0
vt 0.1564298868179321 0.5
vt 0.1381578892469406 0.5
vt 0.6564298868179321 0.5
vt 0.1578947305679321 0.5
vt 0.6564298868179321 0.99853515625
vt 0.1578947305679321 0.99853515625
vt 0.604008674621582 0.99853515625
vt 0.604008674621582 0.7719911336898804
vt 0.5272894501686096 0.7719911336898804
vt 0.5272894501686096 0.99853515625
vt 0.6564298868179321 0
vt 0.1578947305679321 0
vt 0.6564298868179321 0.49853515625
vt 0.1578947305679321 0.49853515625
vt 0.604008674621582 0.49853515625
vt 0.604008674621582 0.2719911634922028
vt 0.5272894501686096 0.2719911634922028
vt 0.5272894501686096 0.49853515625
vt 0.01827199757099152 0
vt 0.009868420660495758 0
vt 0.01827199757099152 0.07694467157125473
vt 0.009868420660495758 0.07694467157125473
vt 0.04787726327776909 0
vt 0.03947368264198303 0
vt 0.04787726327776909 0.2272096574306488
vt 0.03947368264198303 0.2272096574306488
vt 0.03800883889198303 0
vt 0.02960526384413242 0
vt 0.03800883889198303 0.2272096574306488
vt 0.02960526384413242 0.2272096574306488
vt 0.06761410087347031 0
vt 0.04934210702776909 0
vt 0.06761410087347031 0.370480090379715
vt 0.04934210702776909 0.370480090379715
vt 0.05847810581326485 0
vt 0.1268246322870255 0
vt 0.1085526347160339 0
vt 0.1268246322870255 0.05257523059844971
vt 0.1085526347160339 0.05257523059844971
vt 0.1176886335015297 0.05257523059844971
vt 0.008403576910495758 0
vt 0 0
vt 0.008403576910495758 0.07694467157125473
vt 0 0.07694467157125473
vt 0.02814042009413242 0
vt 0.01973684132099152 0
vt 0.02814042009413242 0.2272096574306488
vt 0.01973684132099152 0.2272096574306488
vt 0.1366930454969406 0
vt 0.1282894760370255 0
vt 0.1366930454969406 0.2272096574306488
vt 0.1282894760370255 0.2272096574306488
vn 0 -1 0
vn 0 -1 0
vn 0 -1 0
vn 0 -1 0
vn 0 1 0
vn 0 1 0
vn 0 1 0
vn 0 1 0
vn -1 0 0
vn -1 0 0
vn -1 0 0
vn -1 0 0
vn 0 0 -1
vn 0 0 -1
vn 0 0 -1
vn 0 0 -1
vn 0 0 -1
vn 0 0 -1
vn 0 0 -1
vn 0 0 -1
vn 0 0 1
vn 0 0 1
vn 0 0 1
vn 0 0 1
vn 0 0 1
vn 0 0 1
vn 0 0 1
vn 0 0 1
vn 1 0 0
vn 1 0 0
vn 1 0 0
vn 1 0 0
vn 0 -1 0
vn 0 -1 0
vn 0 -1 0
vn 0 -1 0
vn 0 1 0
vn 0 1 0
vn 0 1 0
vn 0 1 0
vn 1 0 0
vn 1 0 0
vn 1 0 0
vn 1 0 0
vn 1 0 0
vn 1 0 0
vn 1 0 0
vn 1 0 0
vn 1 0 0
vn 1 0 0
vn 1 8.326672684688674e-17 0
vn 1 1.665334536937735e-16 0
vn 1 8.326672684688674e-17 0
vn 1 1.665334536937735e-16 0
vn -2.775557561562891e-17 -1 0
vn -5.551115123125783e-17 -1 0
vn -2.775557561562891e-17 -1 0
vn -5.551115123125783e-17 -1 0
vn 0 1 0
vn 0 1 0
vn 0 1 0
vn 0 1 0
f 2/2/2 1/1/1 3/3/3 4/4/4
f 6/6/6 5/5/5 7/7/7 8/8/8
f 10/10/10 9/9/9 11/11/11 12/12/12
f 19/19/19 18/18/18 13/13/13
f 15/15/15 13/13/13 18/18/18
f 16/16/16 19/19/19 14/14/14
f 13/13/13 14/14/14 19/19/19
f 18/18/18 17/17/17 15/15/15
f 19/19/19 16/16/16 20/20/20
f 27/27/27 21/21/21 26/26/26
f 23/23/23 26/26/26 21/21/21
f 24/24/24 22/22/22 27/27/27
f 21/21/21 27/27/27 22/22/22
f 26/26/26 23/23/23 25/25/25
f 27/27/27 28/28/28 24/24/24
f 30/30/30 32/32/32 31/31/31 29/29/29
f 34/34/34 36/36/36 35/35/35 33/33/33
f 38/38/38 40/40/40 39/39/39 37/37/37
f 43/43/43 45/45/45 41/41/41
f 42/42/42 45/45/45 44/44/44
f 43/43/43 44/44/44 45/45/45
f 50/50/50 47/47/47 46/46/46
f 46/46/46 48/48/48 50/50/50
f 47/47/47 50/50/50 49/49/49
f 52/52/52 54/54/54 53/53/53 51/51/51
f 56/56/56 58/58/58 57/57/57 55/55/55
f 60/60/60 62/62/62 61/61/61 59/59/59
g object_2
v 0 0 0
v 0 20 0
v 20 0 0
v 20 20 0
v 0.5 0.5 0
v 0.5 19.5 0
v 19.5 19.5 0
v 19.5 0.5 0
vt 0 0
vt 0 1
vt 1 0
vt 1 1
vt 0.02500000037252903 0.02500000037252903
vt 0.02500000037252903 0.9750000238418579
vt 0.9750000238418579 0.9750000238418579
vt 0.9750000238418579 0.02500000037252903
vn 0 0 1
vn 0 0 1
vn 0 0 1
vn 0 0 1
vn 0 0 1
vn 0 0 1
vn 0 0 1
vn 0 0 1
f 67/67/67 68/68/68 64/64/64 63/63/63
f 63/63/63 65/65/65 70/70/70 67/67/67
f 68/68/68 69/69/69 66/66/66 64/64/64
f 65/65/65 66/66/66 69/69/69 70/70/70
